<?xml version="1.0" standalone="no"?>
<!DOCTYPE svg PUBLIC "-//W3C//DTD SVG 20010904//EN"
 "http://www.w3.org/TR/2001/REC-SVG-20010904/DTD/svg10.dtd">
<svg version="1.0" xmlns="http://www.w3.org/2000/svg"
 width="783.000000pt" height="783.000000pt" viewBox="0 0 783.000000 783.000000"
 preserveAspectRatio="xMidYMid meet">
<metadata>
Created by potrace 1.14, written by Peter Selinger 2001-2017
</metadata>
<g transform="translate(0.000000,783.000000) scale(0.100000,-0.100000)"
fill="#000000" stroke="none">
<path d="M2169 7816 c-2 -2 -21 -7 -42 -10 -21 -3 -47 -11 -58 -16 -10 -6 -19
-8 -19 -5 0 9 -108 -43 -153 -74 -200 -137 -334 -430 -375 -821 -13 -129 -6
-528 12 -671 2 -19 8 -61 11 -94 4 -33 8 -67 10 -75 1 -8 6 -40 10 -70 12 -98
75 -401 116 -560 22 -85 42 -162 44 -171 2 -9 13 -49 25 -90 12 -41 23 -78 25
-84 1 -5 4 -17 7 -25 3 -8 38 -116 78 -240 40 -124 77 -229 81 -235 5 -5 9
-16 9 -25 0 -10 6 -30 14 -46 7 -16 39 -94 71 -174 31 -80 63 -158 70 -175 7
-16 27 -64 43 -105 29 -72 63 -147 155 -345 45 -97 248 -501 289 -575 14 -25
53 -97 88 -160 34 -63 69 -122 76 -131 8 -8 14 -19 14 -22 0 -10 133 -231 143
-238 5 -3 8 -10 8 -15 -1 -5 6 -17 14 -27 8 -9 15 -19 15 -22 0 -13 260 -409
272 -413 4 -2 8 -10 8 -18 0 -8 5 -14 10 -14 6 0 10 -6 10 -13 0 -7 11 -24 25
-39 14 -15 25 -30 25 -33 0 -8 251 -348 270 -365 3 -3 30 -39 62 -80 31 -41
65 -85 76 -98 11 -13 35 -41 52 -62 18 -22 42 -50 53 -63 12 -13 47 -53 77
-88 185 -214 504 -528 675 -664 28 -22 52 -43 55 -46 16 -18 222 -167 306
-221 141 -91 378 -211 459 -233 17 -5 35 -9 40 -11 126 -38 172 -46 282 -49
91 -3 136 0 175 11 200 59 380 191 460 337 63 116 126 301 143 423 3 21 8 49
10 60 28 129 25 613 -5 824 -5 36 -12 85 -15 110 -3 25 -10 70 -15 100 -5 30
-12 73 -15 95 -3 22 -8 46 -11 54 -2 8 -7 30 -10 50 -5 35 -13 72 -49 226 -9
39 -15 72 -15 75 1 3 -3 18 -9 33 -6 15 -13 40 -16 55 -7 40 -119 430 -132
462 -3 8 -7 17 -8 20 0 3 -12 37 -25 75 -13 39 -25 72 -25 75 -1 3 -7 18 -13
33 -7 16 -12 31 -12 35 0 7 -41 119 -65 177 -4 11 -9 25 -11 30 -13 55 -261
642 -280 665 -7 8 -13 18 -13 23 -1 14 -75 178 -121 267 -94 186 -208 401
-277 524 -46 82 -83 150 -83 152 0 1 -27 46 -60 99 -33 53 -60 100 -60 106 0
5 -4 9 -10 9 -5 0 -10 5 -10 10 0 6 -12 29 -27 53 -16 23 -30 47 -33 53 -8 17
-144 229 -150 234 -3 3 -17 23 -30 45 -14 22 -59 90 -102 150 -43 61 -83 118
-90 129 -48 69 -271 362 -279 364 -5 2 -9 10 -9 17 0 7 -3 15 -8 17 -4 2 -23
23 -42 48 -35 46 -148 181 -159 190 -3 3 -21 23 -40 45 -179 211 -432 465
-636 639 -44 38 -92 79 -107 92 -137 118 -391 284 -562 368 -136 67 -241 105
-391 143 -25 7 -290 15 -296 9z"/>
<path d="M6215 7748 c-148 -36 -275 -94 -390 -180 -159 -119 -350 -338 -495
-570 -74 -119 -235 -430 -284 -550 -55 -134 -83 -204 -91 -228 -1 -3 -7 -18
-13 -33 -19 -46 -82 -239 -82 -251 0 -7 19 -39 43 -71 24 -33 72 -103 108
-155 35 -52 68 -99 72 -105 19 -23 193 -298 255 -403 37 -62 74 -125 83 -140
16 -27 38 -66 80 -139 12 -21 40 -72 62 -113 22 -41 43 -79 48 -85 18 -25 201
-385 294 -580 62 -130 153 -332 160 -355 1 -3 9 -23 19 -45 10 -22 42 -103 73
-180 30 -77 59 -149 63 -160 72 -170 264 -752 284 -859 2 -12 20 -85 40 -164
33 -129 60 -246 72 -312 3 -14 11 -56 19 -95 7 -38 16 -95 20 -125 3 -30 8
-62 10 -70 2 -8 7 -38 10 -66 3 -28 8 -61 10 -75 20 -105 27 -602 10 -744 -4
-38 -8 -78 -9 -87 0 -10 -4 -18 -9 -18 -4 0 -6 -4 -3 -9 6 -9 -39 -206 -51
-225 -4 -6 -8 -13 -9 -16 -8 -42 -66 -174 -84 -190 -13 -12 -41 -72 -36 -77 8
-8 148 139 220 232 188 241 373 576 511 925 124 314 212 602 306 1005 43 183
42 182 63 300 19 102 25 134 31 165 3 14 7 48 10 75 3 28 8 57 10 65 2 8 7 35
10 60 3 25 8 56 10 70 2 14 7 50 10 80 4 30 10 82 15 115 5 33 11 92 14 130 3
39 9 99 12 135 7 74 8 93 20 285 17 269 9 1012 -12 1200 -3 22 -7 76 -10 120
-2 44 -6 87 -9 95 -2 8 -7 44 -10 80 -4 36 -9 72 -10 82 -2 9 -6 38 -10 65 -4
26 -9 59 -11 73 -2 14 -7 45 -10 69 -9 72 -73 377 -110 526 -43 169 -121 410
-169 520 -8 17 -23 54 -35 84 -31 80 -147 305 -193 375 -188 286 -366 443
-593 521 -63 22 -101 28 -189 30 -60 2 -128 -1 -150 -7z"/>
<path d="M1609 7659 c-234 -150 -502 -469 -706 -839 -40 -73 -153 -296 -153
-303 0 -3 -15 -38 -34 -79 -19 -40 -48 -109 -66 -153 -17 -44 -35 -89 -39
-100 -14 -32 -42 -105 -62 -165 -10 -30 -34 -102 -54 -160 -20 -58 -39 -112
-41 -120 -9 -39 -25 -94 -53 -190 -17 -58 -33 -114 -35 -125 -2 -11 -18 -76
-36 -145 -30 -117 -101 -466 -114 -555 -3 -22 -7 -50 -10 -61 -2 -12 -7 -39
-10 -60 -4 -22 -11 -64 -16 -94 -5 -30 -12 -77 -15 -105 -4 -27 -8 -61 -10
-75 -2 -14 -6 -52 -10 -85 -4 -33 -9 -62 -10 -65 -2 -3 -6 -46 -10 -95 -3 -50
-8 -101 -10 -115 -2 -14 -6 -65 -10 -115 -3 -49 -8 -110 -10 -135 -23 -232
-23 -875 0 -1135 2 -27 7 -89 10 -137 3 -49 8 -96 10 -106 2 -11 6 -43 10 -73
25 -222 45 -347 77 -499 10 -52 22 -106 24 -120 7 -32 48 -198 69 -275 73
-271 229 -635 336 -787 11 -14 19 -29 19 -32 0 -15 105 -145 171 -213 62 -64
180 -163 194 -163 3 0 22 -10 43 -23 56 -35 139 -65 220 -80 164 -31 330 -2
497 85 50 27 147 89 160 104 6 6 33 28 60 49 118 91 293 290 402 455 23 36 47
70 51 75 11 14 109 178 140 235 97 180 174 346 247 530 31 80 60 154 65 165
12 28 52 138 54 150 1 6 17 54 35 108 l33 98 -93 141 c-51 77 -98 148 -104
158 -5 10 -67 113 -137 228 -70 116 -139 233 -154 261 -14 28 -30 54 -35 57
-5 3 -7 10 -4 15 4 5 2 9 -4 9 -5 0 -17 20 -27 45 -9 25 -21 45 -25 45 -5 0
-9 4 -9 9 0 5 -12 30 -27 57 -15 27 -28 55 -30 62 -1 8 -8 21 -16 30 -23 28
-254 504 -342 707 -7 17 -25 56 -39 87 -14 31 -26 63 -26 70 0 8 -4 18 -8 23
-9 10 -68 158 -152 380 -23 61 -45 119 -50 130 -36 89 -194 603 -216 700 -1 6
-9 37 -18 71 -8 33 -17 69 -19 80 -2 10 -9 37 -15 59 -6 22 -14 54 -16 70 -3
17 -8 41 -11 55 -15 64 -74 432 -80 493 -3 37 -8 77 -10 87 -6 31 -17 266 -18
370 -1 99 12 310 19 322 2 3 6 28 8 55 6 68 50 238 86 331 43 112 111 222 180
291 86 86 80 95 -21 30z"/>
</g>
</svg>
