<svg width="1141" height="1117" viewBox="0 0 1141 1117" fill="none" xmlns="http://www.w3.org/2000/svg">
    <g clip-path="url(#ljriev2k1a)">
        <path fill-opacity="0.9" d="M732.273 924.17c19.667-33.559 99.477-38.826 151.414 0 38.507 28.79 77.271 93.47 49.84 141.23-17.165 29.86-55.709 45.26-97.472 41.26-87.353 18.73-115.557 9.08-123.174-5.58-9.787-18.81 17.423-40.01 21.673-96.36 3.588-47.508-13.541-61.299-2.263-80.55h-.018z" fill="#F28F45"/>
        <path fill-opacity="0.9" d="M666.978-1H1141v413.511c-46.69-108.588-105.11-157.624-150.513-182.295-91.438-49.668-166.961-20.476-241.362-82.787C698.089 104.695 676.895 43.439 666.96-1h.018z" fill="#C9114D"/>
        <path fill-opacity="0.9" d="M928.541 120.153c6.384 9.214 16.614 29.192 11.315 66.735 11.333 104.929.828 131.707-11.315 136.094-19.336 6.991-37.734-44.63-82.33-49.074-49.564-4.923-68.367 54.705-112.503 49.074-41.175-5.248-83.251-64.628-74.788-118.433 7.194-45.723 48-69.072 74.788-84.415 60.602-34.67 159.73-50.587 194.833 0v.019zM1064.83 560.232c-4.04 3.103-12.84 8.083-29.47 5.708-46.382 5.88-58.267.957-60.272-4.846-3.183-9.252 19.594-18.274 21.36-39.689 1.968-23.79-24.488-32.563-22.188-53.748 2.152-19.768 28.24-40.206 52.08-36.375 20.26 3.257 30.77 22.737 37.66 35.513 15.61 28.924 23.06 76.389.83 93.437z" fill="#FFD800"/>
        <path fill-opacity="0.9" d="M942.321 933.134c-12.161 32.812-26.953 67.636-47.963 99.186-4.747 7.1-10.689 13.56-16.908 19.34-28.498 26.49-70.114 17.93-89.542-7.43-18.932-24.71-32.62-52.463-44.873-81.004-10.118-23.56-19.115-47.637-28.388-71.561-6.218-16.071-16.907-27.411-32.435-33.368-75.799-29.057-151.654-57.962-227.508-86.905-16.135-6.167-31.589-4.788-46.639 3.908-39.445 22.737-79.46 44.19-122.475 58.862-7.34 2.51-14.884 4.387-22.39 6.283-39.335 9.96-77.897-18.695-79.019-64.8-.552-22.526 4.011-44.247 9.107-65.854 10.542-44.822 26.236-87.709 46.896-128.528 34.993-69.071 81.08-128.47 142.768-173.656 33.19-24.307 69.746-38.731 111.289-34.861 37.366 3.486 68.826 20.802 95.816 46.756 13.43 12.91 25.095 27.947 36.667 42.773 9.972 12.814 21.268 23.234 36.262 28.942 11.333 4.31 22.666 8.582 33.963 13.006 15.656 6.149 31.442 6.417 47.558 2.184 37.256-9.807 74.714-11.301 111.878-.038 48.257 14.615 79.902 48.365 98.079 96.213 18.122 47.715 22.39 97.881 21.783 148.583-.736 61.678-12.823 121.23-33.907 181.969h-.019z" fill="#C9104E"/>
        <path fill-opacity="0.9" d="m366.578 514.088-19.263 54.533c14.811 5.67 29.051 11.282 43.401 16.531 4.415 1.609 5.538 3.697 3.771 8.37-4.783 12.796-9.198 25.744-13.688 38.635-.827 2.337-1.379 4.751-1.987 6.934l52.103 19.959c5.52-15.63 10.965-30.666 16.098-45.817 1.491-4.387 3.514-5.345 7.599-3.678 10.579 4.29 21.268 8.313 31.92 12.431l11.848 4.54 19.079-53.978c-1.03-.69-1.564-1.168-2.189-1.417-12.364-4.789-24.746-9.52-37.091-14.309-11.241-4.367-10.008-2.835-6.108-14.27 3.11-9.156 6.403-18.216 9.622-27.334l4.802-13.6-52.507-20.112c-5.28 14.921-10.634 29.23-15.326 43.787-2.005 6.207-4.47 7.413-10.339 4.942-13.652-5.727-27.597-10.726-41.745-16.147zM926.646 764.401c5.575-16.09-2.152-33.501-17.496-39.382-15.344-5.88-32.491 2.203-38.084 18.695-5.446 16.052 2.558 33.655 17.865 39.305 15.307 5.651 32.196-2.681 37.715-18.637v.019zM852.742 704.6c15.233 5.9 32.527-2.164 38.102-17.795 5.777-16.128-2.208-34.286-17.607-40.09-15.196-5.708-32.178 2.509-37.955 18.369-5.666 15.573 2.3 33.617 17.442 39.497h.018v.019zM854.435 794.704c5.74-16.416-2.079-33.866-17.828-39.785-15.307-5.765-31.791 2.433-37.587 18.619-5.63 15.783 2.245 33.52 17.497 39.401 15.123 5.842 32.38-2.471 37.899-18.254l.019.019zM801.761 682.438c-15.288-5.727-32.067 2.548-37.623 18.58-5.556 16.071 2.207 33.387 17.606 39.229 15.528 5.88 32.123-2.05 37.79-18.063 5.777-16.339-2.061-33.865-17.791-39.746h.018z" fill="#fff"/>
        <path fill-opacity="0.9" d="M366.578 514.088c14.166 5.421 28.093 10.42 41.745 16.147 5.869 2.452 8.352 1.265 10.339-4.942 4.71-14.538 10.064-28.866 15.326-43.787l52.507 20.112-4.802 13.6c-3.219 9.118-6.512 18.197-9.622 27.334-3.9 11.435-5.133 9.903 6.108 14.27 12.364 4.789 24.746 9.539 37.091 14.309.607.229 1.159.727 2.189 1.417l-19.079 53.978-11.848-4.54c-10.652-4.118-21.341-8.121-31.92-12.431-4.103-1.667-6.127-.728-7.599 3.678-5.133 15.151-10.578 30.187-16.098 45.817l-52.103-19.959c.626-2.164 1.178-4.597 1.987-6.934 4.508-12.91 8.923-25.858 13.688-38.635 1.748-4.654.626-6.761-3.771-8.37-14.35-5.268-28.572-10.861-43.401-16.531l19.263-54.533zM926.646 764.401c-5.519 15.956-22.408 24.288-37.715 18.638-15.307-5.651-23.311-23.254-17.865-39.306 5.593-16.492 22.354-24.709 38.084-18.695 15.73 6.034 23.071 23.273 17.496 39.382v-.019zM852.742 704.6c-15.142-5.88-23.126-23.924-17.441-39.497 5.777-15.841 22.758-24.077 37.955-18.369 15.399 5.785 23.365 23.943 17.606 40.091-5.593 15.63-22.887 23.694-38.102 17.794h-.018v-.019zM854.435 794.704c-5.52 15.764-22.777 24.077-37.9 18.254-15.27-5.9-23.145-23.618-17.496-39.401 5.776-16.205 22.279-24.384 37.586-18.618 15.749 5.918 23.568 23.368 17.828 39.784l-.018-.019zM801.761 682.438c15.712 5.9 23.55 23.426 17.791 39.746-5.758 16.32-22.28 23.963-37.789 18.063-15.418-5.842-23.181-23.139-17.607-39.229 5.538-16.032 22.317-24.307 37.624-18.58h-.019z" fill="#FFD802"/>
        <path fill-opacity="0.9" d="M657.081 546.555s6.328-141.151 173.326-156.877c166.998-15.726 132.98-212.272 132.98-212.272" stroke="#C9104E" stroke-width="10" stroke-linecap="round" stroke-linejoin="round"/>
        <path fill-opacity="0.9" d="M425.819 484.705c-15.509 9.098-32.73 18.12-51.422 23.617-4.213 1.245-8.721 1.801-13.099 1.973-20.109.843-34.294-17.162-34.036-34.267.239-16.646 3.606-32.717 7.819-48.615 3.458-13.102 7.561-26.031 11.48-39.018 2.649-8.715 1.95-17.048-2.465-24.882-21.489-38.271-43.033-76.484-64.577-114.717-4.581-8.141-11.315-12.968-20.238-14.673-23.365-4.52-46.546-9.73-68.771-18.771-3.79-1.533-7.469-3.41-11.131-5.249-19.207-9.673-25.665-34.784-11.296-53.92 7.028-9.347 15.877-16.607 24.892-23.618a281.558 281.558 0 0 1 60.437-35.934c36.465-15.898 74.328-23.981 113.957-20.86 21.323 1.686 40.843 8.563 56.5 24.634 14.074 14.442 21.305 32.467 23.936 52.445 1.306 9.941 1.214 20.132 1.159 30.188-.074 8.696 1.177 16.875 5.427 24.422 3.22 5.708 6.458 11.397 9.622 17.144 4.397 7.968 10.726 13.58 18.656 17.469 18.305 9.002 34.036 21.453 45.534 38.998 14.921 22.775 16.945 47.542 8.942 73.363-7.985 25.725-22.391 47.618-38.949 68.037-20.145 24.825-44.228 44.841-72.34 62.195l-.037.039z" fill="#FFD601"/>
        <path fill-opacity="0.9" d="m326.452 113.43-25.389 15.458c4.195 7.47 8.187 14.711 12.327 21.855 1.269 2.184 1.067 3.429-1.159 4.731-6.053 3.544-12.033 7.26-18.012 10.938-1.085.67-2.097 1.455-3.036 2.126l14.774 26.28c7.267-4.425 14.332-8.658 21.286-13.025 2.024-1.264 3.146-.939 4.269 1.149 2.925 5.44 5.979 10.803 8.996 16.186l3.367 5.976 25.131-15.304c-.202-.633-.257-1.016-.441-1.341-3.477-6.264-7.01-12.508-10.487-18.753-3.164-5.689-3.164-4.654 2.116-7.93 4.213-2.643 8.463-5.171 12.713-7.757l6.329-3.85-14.884-26.491c-6.936 4.233-13.743 8.179-20.33 12.469-2.815 1.82-4.195 1.456-5.795-1.589-3.717-7.088-7.764-13.983-11.775-21.128zM473.727 410.614c7.451-4.597 9.898-14.385 5.556-22.123-4.342-7.739-13.927-10.439-21.507-5.689-7.377 4.635-9.788 14.577-5.372 22.219 4.415 7.643 13.964 10.133 21.342 5.574l-.019.019zM462.928 360.506c4.286 7.719 13.927 10.458 21.231 6.053 7.543-4.54 10.137-14.711 5.74-22.449-4.342-7.624-13.891-10.21-21.36-5.766-7.322 4.367-9.88 14.481-5.611 22.162zM434.613 397.743c7.617-4.674 10.045-14.501 5.556-22.392-4.378-7.681-13.706-10.095-21.286-5.536-7.378 4.463-9.88 14.423-5.556 22.124 4.268 7.642 13.964 10.286 21.286 5.804zM449.313 333.709c-4.379-7.662-13.872-10.152-21.286-5.555-7.433 4.597-9.843 14.347-5.464 22.104 4.415 7.815 13.724 10.363 21.194 5.842 7.598-4.635 10.064-14.5 5.556-22.372v-.019z" fill="#fff"/>
        <path fill-opacity="0.9" d="M326.452 113.43c4.011 7.145 8.077 14.04 11.775 21.128 1.6 3.045 2.999 3.428 5.795 1.589 6.587-4.271 13.375-8.236 20.33-12.469l14.884 26.491-6.329 3.85c-4.25 2.586-8.5 5.133-12.713 7.757-5.262 3.295-5.28 2.241-2.116 7.93 3.477 6.264 6.991 12.508 10.487 18.753.165.306.239.708.441 1.341l-25.131 15.304-3.367-5.976c-2.999-5.383-6.071-10.746-8.996-16.186-1.141-2.107-2.263-2.432-4.269-1.149-6.973 4.367-14.019 8.581-21.286 13.025l-14.774-26.28c.957-.671 1.951-1.456 3.036-2.126 5.979-3.678 11.94-7.413 18.012-10.938 2.207-1.283 2.428-2.528 1.159-4.731-4.14-7.144-8.132-14.385-12.327-21.855l25.389-15.458z" fill="#C9104E"/>
        <path fill-opacity="0.9" d="M473.727 410.614c-7.377 4.559-16.926 2.069-21.341-5.574-4.416-7.642-2.006-17.584 5.372-22.219 7.58-4.75 17.055-2.26 21.507 5.689 4.471 7.949 1.895 17.507-5.556 22.124h.018v-.02zM462.928 360.506c-4.269-7.681-1.711-17.795 5.611-22.162 7.451-4.425 17-1.858 21.36 5.765 4.397 7.72 1.803 17.891-5.74 22.45-7.304 4.405-16.945 1.647-21.231-6.053zM434.613 397.743c-7.322 4.482-17.018 1.838-21.286-5.804-4.305-7.72-1.822-17.68 5.556-22.124 7.562-4.578 16.908-2.145 21.286 5.536 4.508 7.911 2.061 17.718-5.556 22.392zM449.313 333.708c4.489 7.873 2.042 17.757-5.556 22.373-7.598 4.636-16.779 1.973-21.194-5.842-4.397-7.758-1.987-17.507 5.464-22.105 7.414-4.577 16.907-2.107 21.286 5.555v.019z" fill="#C0244E"/>
        <path fill-opacity="0.9" d="M434.172 227.975s48-55.204 120.984-3.371c73.003 51.851 122.401-39.976 122.401-39.976" stroke="#FFD601" stroke-width="7" stroke-linecap="round" stroke-linejoin="round"/>
        <path fill-opacity="0.9" d="M272.325 381.633c10.426 0 18.877-8.798 18.877-19.652 0-10.854-8.451-19.653-18.877-19.653-10.425 0-18.876 8.799-18.876 19.653s8.451 19.652 18.876 19.652z" fill="#FFD601"/>
        <path fill-opacity="0.9" d="M401.442 989.123c31.519 0 57.07-26.602 57.07-59.417 0-32.816-25.551-59.418-57.07-59.418-31.519 0-57.07 26.602-57.07 59.418 0 32.815 25.551 59.417 57.07 59.417z" stroke="#F28F45" stroke-width="5" stroke-miterlimit="10"/>
        <path fill-opacity="0.9" d="M974.113 929.553c19.509 0 35.327-16.466 35.327-36.777 0-20.312-15.818-36.777-35.327-36.777s-35.324 16.465-35.324 36.777c0 20.311 15.815 36.777 35.324 36.777z" stroke="#FFD802" stroke-width="4" stroke-miterlimit="10"/>
        <path fill-opacity="0.9" d="M245.704 823.78c.165 5.134-4.048 12.892-26.677 23.063-1.619 5.057-7.672 22.047-22.409 28.042-22.298 9.06-52.176-12.106-60.234-38.788-8.482-28.1 10.045-52.963 12.05-55.568 25.481-14.098 39.758-12.374 48.184-7.834 8.666 4.674 8.114 10.707 23.274 25.744 16.134 16.013 25.573 17.89 25.812 25.341z" fill="#F28F45"/>
        <path fill-opacity="0.9" d="M647.642 368.666c5.213 0 9.438-4.4 9.438-9.827 0-5.426-4.225-9.826-9.438-9.826-5.212 0-9.438 4.4-9.438 9.826 0 5.427 4.226 9.827 9.438 9.827z" fill="#FFD601"/>
        <path fill-opacity="0.9" d="M555.874 159.286c5.212 0 9.438-4.399 9.438-9.826 0-5.427-4.226-9.827-9.438-9.827-5.213 0-9.438 4.4-9.438 9.827s4.225 9.826 9.438 9.826z" fill="#C9104E"/>
        <path fill-opacity="0.9" d="M870.845 364.433c-2.41-2.184-4.912-4.195-7.837-5.555-.736-.479-1.472-.939-2.208-1.437-3.311-2.241-5.924-5.21-8.132-8.581-.901-1.36-1.637-1.475-2.962-.498-.662.479-1.306.977-2.042 1.36-1.417.747-1.564 2.03-.386 3.16a32.326 32.326 0 0 1 4.489 5.459c1.085 1.667 1.876 3.487 2.778 5.268-.055.211.037.364.092.555.625 1.782 1.269 3.582 1.766 5.421 2.723 9.98 2.079 19.768-1.692 29.326-2.521 6.379-6.127 12.048-10.45 17.258-2.631 3.161-5.409 6.13-8.445 8.888-1.693 1.532-3.441 3.007-5.17 4.482-3.716 3.18-7.727 5.9-11.793 8.562-1.766 1.15-3.679 2.05-5.298 3.448-1.583 1.36-2.319 3.927-1.656 5.881-.056.306.276.536.128.862l.994 1.417c.717.364 1.361.881 2.152 1.111 5.06 1.418 10.211 1.686 15.4.958 8.113-1.111 15.38-4.463 22.077-9.214 4.581-3.256 8.647-7.125 12.29-11.473 4.434-5.287 8.021-11.167 10.818-17.546 2.594-5.938 4.544-12.086 5.335-18.599.791-6.474.368-12.814-2.06-18.925-.516-1.302-1.307-2.471-1.711-3.831l-3.331-4.712c-1.03-1.015-2.023-2.068-3.09-3.045h-.056z" fill="#FFD802"/>
        <path fill-opacity="0.9" d="M123.247 659.529c-20.605.652-34.827-13.025-58.578-36.604-28.83-28.598-48.81-48.423-46.878-73.19 1.214-15.458 9.511-14.673 20.513-42.696 13.799-35.244 5.133-47.887 17.589-60.988 15.877-16.742 47.227-14.347 67.373-6.092 20.642 8.448 20.587 19.404 55.653 54.898 35.177 35.608 50.999 40.531 49.803 54.897-1.508 18.178-27.376 15.822-46.877 48.806-12.014 20.323-8.555 32.007-23.439 45.741-2.815 2.605-16.448 14.654-35.159 15.247v-.019zM998.104 376.232h11.996c2.21 0 3.99-1.858 3.99-4.157 0-2.298-1.78-4.156-3.99-4.156h-11.996V355.43c0-2.299-1.785-4.157-3.993-4.157-2.207 0-3.992 1.858-3.992 4.157v12.489h-11.995c-2.208 0-3.993 1.858-3.993 4.156 0 2.299 1.785 4.157 3.993 4.157h11.995v12.489c0 2.298 1.785 4.156 3.992 4.156 2.208 0 3.993-1.858 3.993-4.156v-12.489z" fill="#CA1431"/>
        <path fill-opacity="0.9" d="M636.107 1004.33c5.501-6.587 10.597-13.463 14.056-21.508 1.214-2.012 2.392-4.061 3.643-6.034 5.685-9.079 13.173-16.262 21.709-22.334 3.459-2.471 3.716-4.502 1.288-8.141-1.214-1.82-2.465-3.601-3.44-5.612-1.895-3.889-5.133-4.31-8.04-1.073-4.158 4.654-8.758 8.734-13.78 12.316-4.213 3.008-8.85 5.153-13.32 7.624-.516-.153-.939.076-1.417.249-4.544 1.724-9.052 3.486-13.706 4.865-25.279 7.451-50.024 5.708-74.254-4.654-16.154-6.896-30.486-16.818-43.658-28.694-7.985-7.202-15.528-14.864-22.483-23.177-3.882-4.636-7.598-9.424-11.351-14.156-8.077-10.19-14.921-21.223-21.673-32.371-2.925-4.827-5.225-10.075-8.72-14.538-3.441-4.367-9.935-6.379-14.884-4.54-.773-.134-1.38.728-2.19.364l-3.569 2.739c-.938 1.973-2.226 3.716-2.796 5.9-3.588 13.906-4.232 28.004-2.429 42.236 2.815 22.258 11.278 42.198 23.347 60.567 8.242 12.546 18.03 23.694 29.032 33.693 13.394 12.179 28.241 22.009 44.394 29.649 15.031 7.11 30.596 12.47 47.062 14.62 16.392 2.14 32.454.99 47.908-5.67 3.311-1.44 6.255-3.6 9.695-4.71l11.922-9.14c2.558-2.82 5.225-5.56 7.672-8.49h-.018v.02z" fill="#FFD802"/>
        <path fill-opacity="0.9" d="m121.592 489.398-58.193-89.453-58.192 89.453h116.385z" stroke="#FFD802" stroke-width="3" stroke-miterlimit="10"/>
    </g>
    <defs>
        <clipPath id="ljriev2k1a">
            <path fill="#fff" transform="translate(0 -1)" d="M0 0h1141v1118H0z"/>
        </clipPath>
    </defs>
</svg>
