<svg width="28" height="28" viewBox="0 0 28 28" fill="none" xmlns="http://www.w3.org/2000/svg">
    <path fill-rule="evenodd" clip-rule="evenodd" d="M11 10.464h4.334v2.158c.624-1.241 2.224-2.357 4.629-2.357 4.61 0 5.704 2.471 5.704 7.005v8.397H21v-7.364c0-2.582-.624-4.038-2.213-4.038-2.204 0-3.12 1.569-3.12 4.037v7.365h-4.666V10.464zM2.998 25.468h4.667V10.265H2.998v15.203zm5.336-20.16a2.952 2.952 0 0 1-.879 2.103 3.022 3.022 0 0 1-4.244.001 2.973 2.973 0 0 1-.878-2.104c0-.79.315-1.546.879-2.103a3.018 3.018 0 0 1 4.243 0c.562.557.879 1.313.879 2.103z" fill="#fff"/>
</svg>
