<svg width="28" height="28" viewBox="0 0 28 28" fill="none" xmlns="http://www.w3.org/2000/svg">
    <path fill-rule="evenodd" clip-rule="evenodd" d="M8.71 1.244c1.368-.063 1.804-.077 5.29-.077 3.486 0 3.922.015 5.29.077 1.367.062 2.3.28 3.117.596a6.314 6.314 0 0 1 2.273 1.482 6.269 6.269 0 0 1 1.479 2.271c.317.817.534 1.75.597 3.115.063 1.37.077 1.807.077 5.292 0 3.486-.015 3.922-.077 5.29-.061 1.366-.28 2.3-.597 3.116a6.295 6.295 0 0 1-1.48 2.274 6.293 6.293 0 0 1-2.272 1.479c-.817.317-1.75.534-3.115.597-1.37.063-1.806.077-5.292.077-3.486 0-3.922-.015-5.29-.077-1.366-.061-2.3-.28-3.116-.597a6.295 6.295 0 0 1-2.274-1.48 6.291 6.291 0 0 1-1.48-2.272c-.316-.817-.533-1.75-.596-3.115-.063-1.37-.077-1.807-.077-5.292 0-3.486.015-3.922.077-5.29.062-1.367.28-2.3.596-3.117A6.295 6.295 0 0 1 3.32 3.32a6.29 6.29 0 0 1 2.272-1.48c.817-.316 1.75-.533 3.115-.596h.001zm10.476 2.31c-1.354-.062-1.76-.075-5.186-.075-3.427 0-3.832.013-5.186.075-1.252.057-1.93.266-2.383.442a3.985 3.985 0 0 0-1.476.959 3.98 3.98 0 0 0-.96 1.476c-.175.452-.384 1.131-.441 2.383-.062 1.354-.075 1.76-.075 5.186 0 3.427.013 3.832.075 5.186.057 1.252.266 1.93.442 2.383.205.557.533 1.062.959 1.476.414.426.92.754 1.476.96.452.175 1.131.384 2.383.441 1.354.062 1.758.075 5.186.075s3.832-.013 5.186-.075c1.252-.057 1.93-.266 2.383-.442a3.985 3.985 0 0 0 1.476-.959c.426-.414.754-.92.96-1.476.175-.452.384-1.131.441-2.383.062-1.354.075-1.76.075-5.186 0-3.427-.013-3.832-.075-5.186-.057-1.252-.266-1.93-.442-2.383a3.987 3.987 0 0 0-.959-1.476 3.982 3.982 0 0 0-1.476-.96c-.452-.175-1.131-.384-2.383-.441zM12.36 17.956a4.28 4.28 0 0 0 4.666-6.983 4.283 4.283 0 1 0-4.666 6.983zm-3.025-8.62a6.596 6.596 0 1 1 9.328 9.328 6.596 6.596 0 0 1-9.328-9.328zm12.723-.95a1.56 1.56 0 1 0-2.141-2.27 1.56 1.56 0 0 0 2.141 2.27z" fill="#fff"/>
</svg>
