<svg width="28" height="28" viewBox="0 0 28 28" fill="none" xmlns="http://www.w3.org/2000/svg">
    <path d="M27.584 5.76c-.975.431-2.021.723-3.121.855a5.449 5.449 0 0 0 2.389-3.008 10.85 10.85 0 0 1-3.451 1.319 5.437 5.437 0 0 0-9.261 4.958 15.434 15.434 0 0 1-11.202-5.68 5.432 5.432 0 0 0-.735 2.733 5.437 5.437 0 0 0 2.417 4.524 5.42 5.42 0 0 1-2.462-.68v.07a5.437 5.437 0 0 0 4.36 5.33c-.8.216-1.64.248-2.454.093a5.438 5.438 0 0 0 5.077 3.773 10.906 10.906 0 0 1-6.75 2.327c-.434 0-.867-.025-1.298-.075a15.37 15.37 0 0 0 8.33 2.441c9.999 0 15.464-8.28 15.464-15.463 0-.233-.006-.469-.016-.702a11.049 11.049 0 0 0 2.71-2.812l.003-.003z" fill="#fff"/>
</svg>
